<?xml version="1.0" encoding="UTF-8" standalone="no"?>
<!DOCTYPE svg PUBLIC "-//W3C//DTD SVG 1.1//EN" "http://www.w3.org/Graphics/SVG/1.1/DTD/svg11.dtd">
<svg width="100%" height="100%" viewBox="0 0 1000 1000" version="1.1" xmlns="http://www.w3.org/2000/svg" xmlns:xlink="http://www.w3.org/1999/xlink" xml:space="preserve" xmlns:serif="http://www.serif.com/" style="fill-rule:evenodd;clip-rule:evenodd;stroke-linejoin:round;stroke-miterlimit:2;">
    <g transform="matrix(1.02313,0,0,1.02313,-10.9586,-10.8401)">
        <g id="Logo">
            <g id="Rueda" transform="matrix(1,-1.11022e-16,1.11022e-16,1,-6.57314,-8.84176)">
                <g id="Verde">
                    <g transform="matrix(1.47036,1.11022e-16,-1.11022e-16,1.47036,153.642,116.005)">
                        <circle cx="468.008" cy="399.008" r="51.008" style="fill:rgb(76,255,91);"/>
                    </g>
                    <g transform="matrix(1,1.11022e-16,-1.11022e-16,1,6.57314,8.84176)">
                        <path d="M854.577,621.377C854.831,620.634 855.084,619.89 855.334,619.144C867.886,581.707 874.688,541.641 874.688,500C874.688,356.219 793.594,231.229 674.688,168.312L674.688,140.269C807.854,205.231 899.688,341.975 899.688,500C899.688,546.187 891.843,590.556 877.414,631.847C875.894,630.814 874.326,629.83 872.709,628.896C866.88,625.531 860.786,623.038 854.577,621.377Z" style="fill:rgb(76,255,91);"/>
                    </g>
                </g>
                <g id="Coral">
                    <g transform="matrix(1.47036,0,0,1.47036,-517.958,117.005)">
                        <circle cx="468.008" cy="399.008" r="51.008" style="fill:rgb(255,91,76);"/>
                    </g>
                    <g transform="matrix(1,1.11022e-16,-1.11022e-16,1,6.57314,8.84176)">
                        <path d="M216.813,746.223C217.144,746.601 218.454,747.954 218.786,748.33C287.513,826.001 387.924,875 499.688,875C573.073,875 641.563,853.875 699.404,817.379L723.659,831.382C659.737,874.692 582.645,900 499.688,900C379.01,900 270.742,846.444 197.377,761.823C198.932,761.062 212.219,750.86 216.813,746.223Z" style="fill:rgb(255,91,76);"/>
                    </g>
                </g>
                <g id="Violeta">
                    <g transform="matrix(1.47036,1.63243e-16,-1.63243e-16,1.47036,-181.879,-465.344)">
                        <circle cx="468.008" cy="399.008" r="51.008" style="fill:rgb(91,76,255);"/>
                    </g>
                    <g transform="matrix(1,1.11022e-16,-1.11022e-16,1,6.57314,8.84176)">
                        <path d="M427.253,132.003C426.519,132.147 425.786,132.293 425.053,132.441C253.79,167.085 124.688,318.585 124.688,500C124.688,504.781 124.778,509.541 124.955,514.279L100.676,528.3C100.021,518.951 99.688,509.514 99.688,500C99.688,304.796 239.819,142.062 424.887,106.995C424.755,108.813 424.688,110.649 424.688,112.5C424.688,119.245 425.58,125.783 427.253,132.003Z" style="fill:rgb(91,76,255);"/>
                    </g>
                </g>
            </g>
            <g id="Marca" transform="matrix(1.8502,0,0,1.8502,-45.1348,-415.807)">
                <path d="M144.607,398.332L169.473,398.332C179.893,398.332 187.64,399.69 192.713,402.407C197.786,405.124 200.322,409.251 200.322,414.788C200.322,422.424 195.542,428.219 185.981,432.174C197.915,434.409 203.882,439.843 203.882,448.476C203.882,454.357 201.174,459.206 195.757,463.024C190.34,466.841 180.856,468.75 167.306,468.75L142.492,468.802C141.873,467.288 141.563,465.827 141.563,464.417C141.563,463.488 141.821,462.809 142.337,462.379C142.853,461.949 143.61,461.734 144.607,461.734L148.373,461.734C148.579,457.297 148.682,447.53 148.682,432.432C148.682,418.812 148.579,409.802 148.373,405.399L142.492,405.399C141.873,403.886 141.563,402.442 141.563,401.066C141.563,400.103 141.821,399.406 142.337,398.977C142.853,398.547 143.61,398.332 144.607,398.332ZM164.623,437.126L164.623,449.198C164.623,453.153 165.088,455.75 166.016,456.988C166.945,458.226 169.49,458.845 173.651,458.845C177.985,458.845 181.14,458.045 183.118,456.446C185.095,454.847 186.084,452.224 186.084,448.579C186.084,444.658 184.889,441.683 182.499,439.654C180.108,437.625 176.42,436.61 171.433,436.61C169.232,436.61 166.962,436.782 164.623,437.126ZM164.623,427.686C166.343,428.029 168.441,428.201 170.917,428.201C175.044,428.201 178.01,427.436 179.816,425.906C181.622,424.375 182.524,421.959 182.524,418.658C182.524,415.081 181.561,412.45 179.636,410.765C177.71,409.079 174.803,408.237 170.917,408.237C168.888,408.237 166.807,408.409 164.675,408.753C164.64,412.02 164.623,418.331 164.623,427.686Z" style="fill:rgb(0,170,255);fill-rule:nonzero;"/>
                <path d="M223.073,410.094C219.978,410.094 217.742,409.501 216.367,408.314C214.991,407.128 214.303,405.451 214.303,403.284C214.303,401.014 215.18,399.149 216.934,397.687C218.688,396.225 221.181,395.494 224.414,395.494C227.716,395.494 230.055,396.122 231.43,397.377C232.806,398.633 233.494,400.275 233.494,402.304C233.494,404.54 232.668,406.397 231.018,407.876C229.367,409.354 226.719,410.094 223.073,410.094ZM232.514,461.682L238.601,461.682C239.186,462.817 239.478,464.09 239.478,465.5C239.478,466.704 239.229,467.546 238.73,468.028C238.231,468.509 237.26,468.75 235.815,468.75L211.053,468.75C210.468,467.306 210.176,465.947 210.176,464.675C210.176,463.608 210.417,462.843 210.898,462.379C211.38,461.915 212.153,461.682 213.22,461.682L217.45,461.682C217.622,457.28 217.708,452.586 217.708,447.599C217.708,439.998 217.648,434.951 217.527,432.457C217.407,429.964 217.14,428.141 216.728,426.989C216.315,425.837 215.679,425.115 214.819,424.822C213.959,424.53 212.704,424.384 211.053,424.384C210.468,423.421 210.176,422.303 210.176,421.031C210.176,419.105 210.967,417.918 212.549,417.471C214.131,417.024 217.347,416.8 222.196,416.8C225.842,416.8 228.326,416.938 229.651,417.213C230.975,417.488 231.731,418.03 231.92,418.838C232.11,419.646 232.204,420.773 232.204,422.217L232.204,447.599C232.239,452.586 232.342,457.28 232.514,461.682Z" style="fill:rgb(0,170,255);fill-rule:nonzero;"/>
                <path d="M268.574,423.662C266.132,423.662 264.309,424.435 263.106,425.983C261.902,427.531 261.3,430.592 261.3,435.166C261.3,439.396 261.919,442.311 263.157,443.91C264.395,445.509 266.253,446.309 268.729,446.309C271.239,446.309 273.097,445.544 274.3,444.013C275.504,442.483 276.106,439.431 276.106,434.856C276.106,430.936 275.478,428.09 274.223,426.318C272.968,424.547 271.085,423.662 268.574,423.662ZM287.817,423.094C289.502,426.671 290.344,430.196 290.344,433.67C290.344,439.792 288.315,444.667 284.257,448.295C280.199,451.924 274.232,453.738 266.356,453.738C262.951,453.738 260.81,454.064 259.933,454.718C259.056,455.371 258.617,456.369 258.617,457.71C258.617,459.051 259.151,460.057 260.217,460.728C261.283,461.399 266.803,461.734 276.777,461.734C285.478,461.734 291.213,462.706 293.981,464.649C296.75,466.592 298.134,469.421 298.134,473.135C298.134,478.81 295.091,483.281 289.003,486.548C282.916,489.815 273.441,491.449 260.578,491.449C254.594,491.449 250.621,490.692 248.661,489.179C246.701,487.666 245.72,485.551 245.72,482.834C245.72,480.839 246.262,478.836 247.345,476.824C248.429,474.812 249.933,472.843 251.859,470.917C250.105,470.332 248.687,469.335 247.603,467.925C246.52,466.514 245.978,464.795 245.978,462.766C245.978,460.358 246.787,458.243 248.403,456.42C250.019,454.598 252.186,453.067 254.903,451.829C252.633,450.866 250.767,449.164 249.306,446.722C247.844,444.28 247.096,441.167 247.062,437.384C247.062,431.297 249.074,426.25 253.098,422.243C257.121,418.236 263.157,416.233 271.205,416.233C275.263,416.233 279.201,416.904 283.019,418.245C287.937,415.941 290.86,414.788 291.789,414.788C296.776,414.788 299.519,414.917 300.017,415.175C300.516,415.433 300.765,415.906 300.765,416.594C300.765,417.591 300.275,419.079 299.295,421.056C298.315,423.034 297.378,424.023 296.483,424.023C295.589,424.023 293.01,423.197 288.745,421.547L287.817,423.094ZM260.526,471.639C259.735,472.568 259.108,473.642 258.643,474.863C258.179,476.084 257.947,477.279 257.947,478.449C257.981,480.478 258.609,481.914 259.83,482.756C261.051,483.599 263.57,484.02 267.388,484.02C272.718,484.02 276.699,483.418 279.33,482.215C281.961,481.011 283.277,479.222 283.277,476.849C283.277,474.855 282.314,473.488 280.388,472.748C278.462,472.009 271.841,471.639 260.526,471.639Z" style="fill:rgb(0,170,255);fill-rule:nonzero;"/>
                <path d="M312.012,443.884C312.012,428.27 311.943,418.468 311.805,414.479C311.668,410.489 311.41,407.764 311.031,406.302C310.653,404.84 309.991,403.895 309.045,403.465C308.099,403.035 306.87,402.82 305.357,402.82C304.738,401.41 304.428,400 304.428,398.59C304.428,397.145 304.97,396.225 306.053,395.83C307.136,395.434 310.601,395.236 316.448,395.236C320.094,395.236 322.587,395.383 323.929,395.675C325.27,395.967 326.035,396.509 326.224,397.3C326.413,398.091 326.508,399.209 326.508,400.653L326.508,440.325C326.508,450.161 326.594,457.28 326.766,461.682L333.369,461.682C333.954,462.817 334.246,464.09 334.246,465.5C334.246,466.704 333.997,467.546 333.498,468.028C333,468.509 332.028,468.75 330.583,468.75L305.357,468.75C304.738,467.306 304.428,465.947 304.428,464.675C304.428,463.608 304.669,462.843 305.15,462.379C305.632,461.915 306.406,461.682 307.472,461.682L311.702,461.682C311.908,457.28 312.012,451.347 312.012,443.884Z" style="fill:rgb(0,170,255);fill-rule:nonzero;"/>
                <path d="M363.652,425.158C361.107,425.158 359.163,426.189 357.822,428.253C356.481,430.317 355.793,433.911 355.759,439.035L358.493,439.035C362.31,439.035 365.225,438.923 367.237,438.7C369.249,438.476 370.427,438.098 370.771,437.565C371.115,437.032 371.287,436.146 371.287,434.908C371.287,431.813 370.616,429.414 369.275,427.711C367.934,426.009 366.059,425.158 363.652,425.158ZM365.715,416.233C372.869,416.233 378.062,417.858 381.295,421.108C384.528,424.358 386.144,429.491 386.144,436.507C386.144,439.981 385.456,442.457 384.081,443.936C382.705,445.415 379.696,446.154 375.053,446.154L355.862,446.154C355.965,450.66 356.98,454.193 358.906,456.756C360.831,459.318 364.219,460.599 369.068,460.599C373.815,460.599 378.698,459.223 383.72,456.472C385.508,458.226 386.402,460.118 386.402,462.147C386.402,464.898 384.382,466.815 380.341,467.899C376.299,468.982 371.562,469.524 366.128,469.524C356.773,469.524 349.981,467.632 345.75,463.849C341.52,460.066 339.405,453.824 339.405,445.122C339.405,436.077 341.787,429.001 346.55,423.894C351.313,418.787 357.702,416.233 365.715,416.233Z" style="fill:rgb(0,170,255);fill-rule:nonzero;"/>
                <path d="M397.442,461.682C399.162,459.309 403.581,452.964 410.7,442.646C407.639,437.969 405.327,434.478 403.762,432.174C402.197,429.869 400.959,428.141 400.047,426.989C399.136,425.837 398.259,425.115 397.416,424.822C396.574,424.53 395.482,424.384 394.14,424.384C393.556,423.421 393.263,422.148 393.263,420.566C393.263,418.95 394.14,417.918 395.894,417.471C397.648,417.024 401.397,416.8 407.141,416.8C408.276,416.8 409.626,417.007 411.19,417.419C412.755,417.832 413.882,418.632 414.57,419.818C415.257,421.005 416.289,423.111 417.665,426.138C419.041,429.164 421.087,432.93 423.804,437.436C426.796,432.655 429.014,428.631 430.459,425.364L428.086,425.364C427.467,424.16 427.157,422.888 427.157,421.547C427.157,420.205 427.424,419.234 427.957,418.632C428.49,418.03 429.358,417.729 430.562,417.729L446.142,417.729C446.761,418.898 447.07,420.136 447.07,421.443C447.07,422.957 446.778,423.988 446.193,424.539C445.609,425.089 444.577,425.364 443.098,425.364L442.788,425.364C438.627,430.42 434.242,436.456 429.633,443.472C436.684,454.099 440.682,459.791 441.628,460.547C442.573,461.304 444.044,461.682 446.038,461.682C446.554,462.473 446.812,463.574 446.812,464.984C446.812,466.6 446.176,467.632 444.904,468.079C443.631,468.526 441.636,468.75 438.919,468.75C434.276,468.75 431.293,468.655 429.969,468.466C428.645,468.277 427.621,467.701 426.899,466.738C426.177,465.775 422.703,459.756 416.478,448.682C412.798,454.632 410.58,458.965 409.823,461.682L413.228,461.682C413.813,462.817 414.105,464.09 414.105,465.5C414.105,466.704 413.856,467.546 413.357,468.028C412.858,468.509 411.887,468.75 410.442,468.75L393.521,468.75C392.937,467.306 392.644,465.947 392.644,464.675C392.644,463.608 392.885,462.843 393.367,462.379C393.848,461.915 394.622,461.682 395.688,461.682L397.442,461.682Z" style="fill:rgb(0,170,255);fill-rule:nonzero;"/>
                <path d="M281.6,503.985L309.767,503.985C310.352,505.257 310.644,506.53 310.644,507.802C310.644,509.041 310.421,509.892 309.974,510.356C309.527,510.82 308.822,511.053 307.859,511.053L302.906,511.104C302.7,515.472 302.597,522.712 302.597,532.823L302.597,572.804C302.597,577.619 301.909,581.471 300.533,584.36C299.157,587.249 296.965,589.57 293.956,591.324C290.946,593.078 286.157,593.955 279.588,593.955C275.152,593.955 272.22,593.56 270.792,592.769C269.365,591.978 268.651,590.55 268.651,588.487C268.651,585.804 269.425,583.414 270.973,581.316C277.679,583.689 281.97,584.532 283.844,583.844C285.719,583.156 286.656,578.857 286.656,570.947L286.656,532.771C286.656,522.694 286.535,515.455 286.295,511.053L279.433,511.053C278.849,509.539 278.556,508.095 278.556,506.719C278.556,505.756 278.814,505.06 279.33,504.63C279.846,504.2 280.603,503.985 281.6,503.985Z" style="fill:rgb(0,170,255);fill-rule:nonzero;"/>
            </g>
        </g>
    </g>
</svg>
