<?xml version="1.0" encoding="UTF-8" standalone="no"?><!DOCTYPE svg PUBLIC "-//W3C//DTD SVG 1.1//EN" "http://www.w3.org/Graphics/SVG/1.1/DTD/svg11.dtd"><svg width="100%" height="100%" viewBox="0 0 15 15" version="1.1" xmlns="http://www.w3.org/2000/svg" xmlns:xlink="http://www.w3.org/1999/xlink" xml:space="preserve" xmlns:serif="http://www.serif.com/" style="fill-rule:evenodd;clip-rule:evenodd;stroke-linejoin:round;stroke-miterlimit:2;"><path id="COmentario" d="M5.774,14.179l0.145,-2.63c0,-0 -1.172,-0.102 -1.742,-0.239c-0.579,-0.138 -1.251,-0.222 -1.736,-0.595c-0.304,-0.232 -0.786,-0.549 -1.102,-0.904c-0.322,-0.36 -0.673,-0.779 -0.828,-1.256c-0.218,-0.673 -0.477,-1.95 -0.478,-2.78c-0.001,-0.75 0.175,-1.512 0.473,-2.201c0.301,-0.698 0.722,-1.471 1.333,-1.983c0.652,-0.547 1.632,-1.139 2.582,-1.3c1.356,-0.229 4.306,-0.188 5.555,-0.077c0.688,0.061 1.373,0.403 1.934,0.744c0.552,0.336 1.064,0.788 1.432,1.305c0.368,0.517 0.614,1.293 0.777,1.797c0.128,0.395 0.153,0.69 0.201,1.227c0.041,0.457 -0.02,1.081 -0.06,1.57c-0.078,0.959 -0.446,1.872 -0.988,2.529c-1.391,1.686 -7.498,4.793 -7.498,4.793Zm1.427,-2.235c0,-0 3.376,-1.819 4.292,-2.637c0.638,-0.57 1.021,-1.489 1.202,-2.269c0.181,-0.78 0.058,-1.712 -0.116,-2.411c-0.162,-0.652 -0.504,-1.33 -0.93,-1.787c-0.425,-0.457 -0.965,-0.867 -1.622,-0.956c-0.583,-0.078 -1.67,-0.115 -2.709,-0.108c-1.092,0.007 -1.987,-0.088 -2.621,0.021c-0.751,0.13 -1.63,0.706 -2.14,1.228c-0.491,0.503 -0.759,1.216 -0.916,1.901c-0.156,0.686 -0.143,1.585 -0.022,2.21c0.108,0.56 0.466,1.136 0.746,1.54c0.243,0.351 0.566,0.66 0.932,0.882c0.391,0.238 0.878,0.444 1.412,0.542c0.671,0.122 2.469,0.116 2.469,0.116l0.023,1.728Z" style="fill:#838385;"/></svg>