<?xml version="1.0" encoding="UTF-8" standalone="no"?><!DOCTYPE svg PUBLIC "-//W3C//DTD SVG 1.1//EN" "http://www.w3.org/Graphics/SVG/1.1/DTD/svg11.dtd"><svg width="100%" height="100%" viewBox="0 0 13 13" version="1.1" xmlns="http://www.w3.org/2000/svg" xmlns:xlink="http://www.w3.org/1999/xlink" xml:space="preserve" xmlns:serif="http://www.serif.com/" style="fill-rule:evenodd;clip-rule:evenodd;stroke-linejoin:round;stroke-miterlimit:2;"><path id="Compartir" d="M5.621,2.832l-2.469,2.126l-0.444,-1.267l3.577,-3.607l3.679,3.607l-0.577,1.267l-2.354,-2.126l-0,6.707l-1.412,-0l-0,-6.707Zm6.803,5.872l0,2.469c0,0.929 -0.754,1.683 -1.683,1.683l-8.98,0c-0.929,0 -1.684,-0.754 -1.684,-1.683l0,-2.469l1.358,-0l-0,2.478c-0,0.288 0.233,0.522 0.521,0.522l8.697,-0c0.288,-0 0.521,-0.234 0.521,-0.522l0,-2.478l1.25,-0Z" style="fill:#838385;"/></svg>