<?xml version="1.0" encoding="UTF-8" standalone="no"?><!DOCTYPE svg PUBLIC "-//W3C//DTD SVG 1.1//EN" "http://www.w3.org/Graphics/SVG/1.1/DTD/svg11.dtd"><svg width="100%" height="100%" viewBox="0 0 14 13" version="1.1" xmlns="http://www.w3.org/2000/svg" xmlns:xlink="http://www.w3.org/1999/xlink" xml:space="preserve" xmlns:serif="http://www.serif.com/" style="fill-rule:evenodd;clip-rule:evenodd;stroke-linejoin:round;stroke-miterlimit:2;"><path id="Corazón" d="M7.013,1.58c1.448,-1.919 4.346,-1.919 5.795,-0.638c1.449,1.282 1.449,3.846 0,6.409c-1.014,1.923 -3.622,3.845 -5.795,5.127c-2.174,-1.282 -4.782,-3.204 -5.796,-5.127c-1.449,-2.563 -1.449,-5.127 -0,-6.409c1.449,-1.281 4.347,-1.281 5.796,0.638Zm-0,1.983c-1.165,-2.469 -3.493,-2.469 -4.657,-1.504c-1.164,0.964 -1.164,2.892 0,4.821c0.815,1.447 2.91,2.893 4.657,3.857c1.746,-0.964 3.841,-2.41 4.656,-3.857c1.164,-1.929 1.164,-3.857 -0,-4.821c-1.164,-0.965 -3.492,-0.965 -4.656,1.504Z" style="fill:#838385;"/></svg>