<?xml version="1.0" encoding="UTF-8" standalone="no"?><!DOCTYPE svg PUBLIC "-//W3C//DTD SVG 1.1//EN" "http://www.w3.org/Graphics/SVG/1.1/DTD/svg11.dtd"><svg width="100%" height="100%" viewBox="0 0 18 12" version="1.1" xmlns="http://www.w3.org/2000/svg" xmlns:xlink="http://www.w3.org/1999/xlink" xml:space="preserve" xmlns:serif="http://www.serif.com/" style="fill-rule:evenodd;clip-rule:evenodd;stroke-linejoin:round;stroke-miterlimit:2;"><path id="Retuit" d="M2.504,3.188l-1.306,1.248l-1.161,-1.214l3.311,-3.165l3.38,3.232l-1.161,1.214l-1.376,-1.315l0,5.264c0,0.946 0.828,1.722 1.874,1.785c0.045,0.002 0.091,0.004 0.137,0.004c0.047,-0 0.093,-0.002 0.138,-0.004l3.201,-0l0,1.68l-4.743,-0.004c-1.278,-0.065 -2.294,-1.045 -2.294,-2.242l0,-6.483Zm10.469,5.612l-0,-5.264c-0,-0.946 -0.828,-1.721 -1.874,-1.784c-0.046,-0.003 -0.091,-0.005 -0.138,-0.005c-0.046,0 -0.092,0.002 -0.137,0.005l-3.202,-0l0,-1.68l4.744,0.003c1.278,0.066 2.294,1.045 2.294,2.242l-0,6.483l1.306,-1.248l1.161,1.214l-3.311,3.165l-3.38,-3.232l1.161,-1.214l1.376,1.315Z" style="fill:#838385;"/></svg>