<?xml version="1.0" encoding="UTF-8" standalone="no"?><!DOCTYPE svg PUBLIC "-//W3C//DTD SVG 1.1//EN" "http://www.w3.org/Graphics/SVG/1.1/DTD/svg11.dtd"><svg width="100%" height="100%" viewBox="0 0 18 12" version="1.1" xmlns="http://www.w3.org/2000/svg" xmlns:xlink="http://www.w3.org/1999/xlink" xml:space="preserve" xmlns:serif="http://www.serif.com/" style="fill-rule:evenodd;clip-rule:evenodd;stroke-linejoin:round;stroke-miterlimit:2;"><path id="Retuit" d="M2.644,2.905l-1.443,1.36l-0.996,-1.057l3.165,-2.983l3.166,2.983l-0.996,1.057l-1.443,-1.36l-0,0.296c-0.03,0.141 -0.046,0.288 -0.046,0.438l0,4.6c0,1.179 0.958,2.137 2.137,2.137l2.62,-0c0.236,-0 0.733,-0.003 0.733,-0.003l-0.004,1.55l-4.756,-0c-1.179,-0 -2.137,-0.958 -2.137,-2.137l0,-6.881Zm11.894,6.338l1.444,-1.36l0.996,1.057l-3.166,2.983l-3.165,-2.983l0.996,-1.057l1.443,1.36l-0,-0.296c0.029,-0.142 0.045,-0.288 0.045,-0.439l0,-4.599c0,-1.179 -0.957,-2.137 -2.137,-2.137l-2.619,0c-0.236,0 -0.733,0.002 -0.733,0.002l0.003,-1.549l4.756,-0c1.18,-0 2.137,0.957 2.137,2.137l0,6.881Z" style="fill:#838385;"/></svg>