<?xml version="1.0" encoding="UTF-8" standalone="no"?><!DOCTYPE svg PUBLIC "-//W3C//DTD SVG 1.1//EN" "http://www.w3.org/Graphics/SVG/1.1/DTD/svg11.dtd"><svg width="100%" height="100%" viewBox="0 0 454 29" version="1.1" xmlns="http://www.w3.org/2000/svg" xmlns:xlink="http://www.w3.org/1999/xlink" xml:space="preserve" xmlns:serif="http://www.serif.com/" style="fill-rule:evenodd;clip-rule:evenodd;stroke-linejoin:round;stroke-miterlimit:2;"><path id="COmentario" d="M55.454,19.939l0.145,-2.63c0,-0 -1.172,-0.102 -1.742,-0.239c-0.579,-0.138 -1.251,-0.222 -1.736,-0.595c-0.304,-0.232 -0.786,-0.549 -1.102,-0.904c-0.322,-0.36 -0.673,-0.779 -0.828,-1.256c-0.218,-0.673 -0.477,-1.95 -0.478,-2.78c-0.001,-0.75 0.175,-1.512 0.473,-2.201c0.301,-0.698 0.722,-1.471 1.333,-1.983c0.652,-0.547 1.632,-1.139 2.582,-1.3c1.356,-0.229 4.306,-0.188 5.555,-0.077c0.688,0.061 1.373,0.403 1.934,0.744c0.552,0.336 1.064,0.788 1.432,1.305c0.368,0.517 0.614,1.293 0.777,1.797c0.128,0.395 0.153,0.69 0.201,1.227c0.041,0.457 -0.02,1.081 -0.06,1.57c-0.078,0.959 -0.446,1.872 -0.988,2.529c-1.391,1.686 -7.498,4.793 -7.498,4.793Zm1.427,-2.235c0,-0 3.376,-1.819 4.292,-2.637c0.638,-0.57 1.021,-1.489 1.202,-2.269c0.181,-0.78 0.058,-1.712 -0.116,-2.411c-0.162,-0.652 -0.504,-1.33 -0.93,-1.787c-0.425,-0.457 -0.965,-0.867 -1.622,-0.956c-0.583,-0.078 -1.67,-0.115 -2.709,-0.108c-1.092,0.007 -1.987,-0.088 -2.621,0.021c-0.751,0.13 -1.63,0.706 -2.14,1.228c-0.491,0.503 -0.759,1.216 -0.916,1.901c-0.156,0.686 -0.143,1.585 -0.022,2.21c0.108,0.56 0.466,1.136 0.746,1.54c0.243,0.351 0.566,0.66 0.932,0.882c0.391,0.238 0.878,0.444 1.412,0.542c0.671,0.122 2.469,0.116 2.469,0.116l0.023,1.728Z" style="fill:#838385;"/><path id="Retuit" d="M135.464,10.388l-1.306,1.248l-1.161,-1.214l3.311,-3.165l3.38,3.232l-1.161,1.214l-1.376,-1.315l0,5.264c0,0.946 0.828,1.722 1.874,1.785c0.045,0.002 0.091,0.004 0.137,0.004c0.047,-0 0.093,-0.002 0.138,-0.004l3.201,-0l0,1.68l-4.743,-0.004c-1.278,-0.065 -2.294,-1.045 -2.294,-2.242l0,-6.483Zm10.469,5.612l-0,-5.264c-0,-0.946 -0.828,-1.721 -1.874,-1.784c-0.046,-0.003 -0.091,-0.005 -0.138,-0.005c-0.046,0 -0.092,0.002 -0.137,0.005l-3.202,-0l0,-1.68l4.744,0.003c1.278,0.066 2.294,1.045 2.294,2.242l-0,6.483l1.306,-1.248l1.161,1.214l-3.311,3.165l-3.38,-3.232l1.161,-1.214l1.376,1.315Z" style="fill:#838385;"/><path id="Corazón" d="M226.373,8.78c1.448,-1.919 4.346,-1.919 5.795,-0.638c1.449,1.282 1.449,3.846 0,6.409c-1.014,1.923 -3.622,3.845 -5.795,5.127c-2.174,-1.282 -4.782,-3.204 -5.796,-5.127c-1.449,-2.563 -1.449,-5.127 -0,-6.409c1.449,-1.281 4.347,-1.281 5.796,0.638Zm-0,1.983c-1.165,-2.469 -3.493,-2.469 -4.657,-1.504c-1.164,0.964 -1.164,2.892 0,4.821c0.815,1.447 2.91,2.893 4.657,3.857c1.746,-0.964 3.841,-2.41 4.656,-3.857c1.164,-1.929 1.164,-3.857 -0,-4.821c-1.164,-0.965 -3.492,-0.965 -4.656,1.504Z" style="fill:#838385;"/><path id="Guardar" d="M316.928,7.05l0,13.583l-5.556,-3.956l-5.32,3.956l0,-13.583l0.782,-0.666l9.246,-0l0.848,0.666Zm-1.155,0.768l-0.547,-0.398l-7.402,-0l-0.631,0.398l-0,10.432l4.197,-3.007l4.383,3.007l0,-10.432Z" style="fill:#838385;"/><path id="Compartir" d="M395.621,9.312l-2.469,2.126l-0.444,-1.267l3.577,-3.607l3.679,3.607l-0.577,1.267l-2.354,-2.126l-0,6.707l-1.412,-0l-0,-6.707Zm6.803,5.872l0,2.469c0,0.929 -0.754,1.683 -1.683,1.683l-8.98,0c-0.929,0 -1.684,-0.754 -1.684,-1.683l0,-2.469l1.358,-0l-0,2.478c-0,0.288 0.233,0.522 0.521,0.522l8.697,-0c0.288,-0 0.521,-0.234 0.521,-0.522l0,-2.478l1.25,-0Z" style="fill:#838385;"/></svg>